#!OML:ASF E:\basketball\basketball\Project 1\Capture day 1\Session 1\Subject.ASF
:FULLY-SPECIFIED
:DEGREES
182
root 28.8289 14.3967 -2.86986 -373.212 85.2849 -386.118
lowerback 19.6924 -0.747791 4.0735
upperback 9.01391 0.611086 5.17409
thorax -1.30705 0.586966 3.0653
lowerneck -7.90341 -2.27784 -7.41596
upperneck -17.18 -1.05528 8.82613
head -3.70454 -0.146393 3.96938
rclavicle 0 -1.66979e-014
rhumerus 20.4237 21.0747 -79.552
rradius 64.6806
rwrist 23.5251
rhand -25.7874 37.0331
rfingers 7.12502
rthumb 0.751047 7.05471
lclavicle 0 -1.66979e-014
lhumerus -52.3723 -14.3865 108.432
lradius 36.2564
lwrist 29.9189
lhand -27.1206 41.956
lfingers 7.12502
lthumb -0.536544 71.935
rfemur -45.9324 -10.9368 29.9514
rtibia 66.4363
rfoot -24.9212 -9.38155
rtoes -12.8609
lfemur -12.4084 22.2599 -3.84617
ltibia 114.59
lfoot -7.84055 -6.82487
ltoes -4.01799
183
root 29.3353 14.4298 -2.89317 -377.436 85.5812 -390.433
lowerback 19.1094 -0.247092 4.03766
upperback 8.76122 1.18385 5.01274
thorax -1.29511 0.859252 2.79329
lowerneck -7.86329 -2.84677 -8.25043
upperneck -16.1112 -1.72277 10.4083
head -3.28389 -0.506689 4.5898
rclavicle 2.22639e-014 5.32743e-014
rhumerus 21.0411 20.2445 -80.6919
rradius 56.9438
rwrist 22.511
rhand -26.2748 39.989
rfingers 7.12502
rthumb 0.280332 10.0094
lclavicle 2.22639e-014 5.32743e-014
lhumerus -53.164 -13.5347 107.62
lradius 37.6372
lwrist 31.9922
lhand -27.4562 43.7842
lfingers 7.12502
lthumb -0.860687 73.7622
rfemur -43.5108 -11.3237 29.4297
rtibia 66.1996
rfoot -25.8532 -9.99445
rtoes -16.1275
lfemur -17.5806 22.5265 -3.83354
ltibia 116.585
lfoot -7.95988 -7.85686
ltoes -4.82451
184
root 29.8517 14.4773 -2.92255 -385.103 85.6449 -398.403
lowerback 18.2622 0.194606 4.38316
upperback 8.40904 1.72077 4.83412
thorax -1.23362 1.1195 2.30478
lowerneck -7.23831 -3.38954 -8.71157
upperneck -15.3573 -2.46927 11.5625
head -3.04513 -0.928604 5.01843
rclavicle -2.14687e-014 -2.38542e-014
rhumerus 21.467 19.4376 -81.9819
rradius 49.5191
rwrist 19.2335
rhand -27.7744 42.2874
rfingers 7.12502
rthumb -1.16805 12.3108
lclavicle -2.14687e-014 -2.38542e-014
lhumerus -54.3293 -12.6315 106.603
lradius 40.0698
lwrist 34.7363
lhand -27.6664 44.256
lfingers 7.12502
lthumb -1.06376 74.2331
rfemur -41.0958 -11.7524 29.2702
rtibia 65.6058
rfoot -26.2136 -10.8017
rtoes -21.2938
lfemur -22.9635 22.902 -4.09184
ltibia 117.705
lfoot -8.18552 -8.05024
ltoes -5.47179
185
root 30.3792 14.5489 -2.96065 -393.141 85.4138 -406.127
lowerback 18.046 0.615164 4.84503
upperback 8.24952 2.31292 4.69484
thorax -1.27384 1.41869 1.78627
lowerneck -6.32324 -3.93286 -9.23353
upperneck -14.9188 -3.23814 12.5838
head -2.93715 -1.36267 5.42528
rclavicle -1.51076e-014 1.66979e-014
rhumerus 21.4288 18.7769 -83.0662
rradius 42.9605
rwrist 13.3969
rhand -28.4157 42.5792
rfingers 7.12502
rthumb -1.7874 12.607
lclavicle -1.51076e-014 1.66979e-014
lhumerus -55.4312 -11.8139 105.69
lradius 42.9626
lwrist 37.1056
lhand -28.3264 44.0302
lfingers 7.12502
lthumb -1.70113 74.0031
rfemur -37.7863 -12.2293 28.9684
rtibia 64.6389
rfoot -26.0285 -10.8877
rtoes -25.479
lfemur -27.2792 23.123 -4.42711
ltibia 117.72
lfoot -8.10936 -7.38657
ltoes -3.98323
186
root 30.9165 14.6286 -3.00213 -400.401 84.9808 -412.785
lowerback 18.0745 1.07906 5.23397
upperback 8.23542 2.98446 4.70462
thorax -1.28177 1.76126 1.45305
lowerneck -5.47787 -4.50063 -9.8538
upperneck -14.5998 -4.04406 13.4775
head -2.84106 -1.80406 5.81091
rclavicle -2.38542e-015 -2.8625e-014
rhumerus 20.8296 18.3747 -83.6534
rradius 37.5926
rwrist 6.00383
rhand -28.9397 39.4418
rfingers 7.12502
rthumb -2.29344 9.47433
lclavicle -2.38542e-015 -2.8625e-014
lhumerus -56.2731 -10.9377 104.923
lradius 45.9047
lwrist 37.7547
lhand -28.8198 43.2371
lfingers 7.12502
lthumb -2.17766 73.2057
rfemur -34.0325 -12.7574 28.5609
rtibia 63.4545
rfoot -25.437 -10.2104
rtoes -28.7124
lfemur -30.9498 23.1669 -4.77318
ltibia 116.853
lfoot -8.88703 -6.97361
ltoes -5.16362
187
root 31.4551 14.7 -3.04736 -405.055 84.4889 -416.826
lowerback 18.0467 1.62913 5.45179
upperback 8.31916 3.73531 4.73021
thorax -1.15697 2.14434 1.22484
lowerneck -5.47789 -5.2602 -10.1728
upperneck -13.7283 -5.14151 14.0257
head -2.42171 -2.36439 5.9935
rclavicle 3.73715e-014 5.88403e-014
rhumerus 19.7752 19.0897 -83.5128
rradius 33.6813
rwrist -3.95458
rhand -25.5873 37.4664
rfingers 7.12502
rthumb 0.944352 7.48876
lclavicle 3.73715e-014 5.88403e-014
lhumerus -56.8271 -10.2759 104.213
lradius 48.8452
lwrist 37.1286
lhand -28.8911 42.2916
lfingers 7.12502
lthumb -2.24658 72.2595
rfemur -30.1394 -13.2184 27.9666
rtibia 62.114
rfoot -24.1867 -10.3069
rtoes -34.7581
lfemur -34.4436 23.0675 -5.44146
ltibia 115.305
lfoot -9.68547 -5.93552
ltoes -7.19493
188
root 32.008 14.7996 -3.09397 -408.085 84.081 -419.281
lowerback 18.0282 2.23938 5.66968
upperback 8.37165 4.55488 4.60866
thorax -1.05023 2.56098 0.831395
lowerneck -6.43768 -6.4098 -10.0258
upperneck -11.9839 -6.8258 14.2092
head -1.55038 -3.19063 5.89936
rclavicle -5.40694e-014 -2.8625e-014
rhumerus 18.1244 18.9288 -83.7428
rradius 31.085
rwrist -9.67419
rhand -20.2497 43.9476
rfingers 7.12502
rthumb 6.09875 14.0554
lclavicle -5.40694e-014 -2.8625e-014
lhumerus -57.2841 -10.2253 103.533
lradius 51.873
lwrist 36.4236
lhand -28.6924 41.4234
lfingers 7.12502
lthumb -2.05463 71.3932
rfemur -26.6344 -13.3055 27.0494
rtibia 60.798
rfoot -23.3086 -7.02774
rtoes -33.1823
lfemur -37.6215 22.7857 -6.4568
ltibia 112.812
lfoot -9.66132 -4.50008
ltoes -10.0726
